<?xml version="1.0" standalone="no"?>
<!DOCTYPE svg PUBLIC "-//W3C//DTD SVG 20010904//EN"
 "http://www.w3.org/TR/2001/REC-SVG-20010904/DTD/svg10.dtd">
<svg version="1.0" xmlns="http://www.w3.org/2000/svg"
 width="283.000000pt" height="226.000000pt" viewBox="0 0 283.000000 226.000000"
 preserveAspectRatio="xMidYMid meet">
<metadata>
Created by potrace 1.13, written by Peter Selinger 2001-2015
</metadata>
<g transform="translate(0.000000,226.000000) scale(0.100000,-0.100000)"
fill="#000000" stroke="none">
<path d="M0 1985 l0 -245 1405 0 1405 0 0 245 0 245 -1405 0 -1405 0 0 -245z"/>
<path d="M0 1125 l0 -245 1405 0 1405 0 0 245 0 245 -1405 0 -1405 0 0 -245z"/>
<path d="M0 240 l0 -240 1405 0 1405 0 0 240 0 240 -1405 0 -1405 0 0 -240z"/>
</g>
</svg>
